<svg width="40" height="40" viewBox="0 0 40 40" fill="none" xmlns="http://www.w3.org/2000/svg">
<path d="M20 0C35.1658 0 40 4.83421 40 20C40 35.1658 35.1658 40 20 40C4.83421 40 0 35.1658 0 20C0 4.83421 4.83421 0 20 0Z" fill="url(#paint0_linear_4_44)"/>
<path d="M19.3329 10.2763C19.7013 9.90789 20.2987 9.9079 20.6671 10.2763L23.3581 12.9673C23.7265 13.3357 23.7265 13.9331 23.3581 14.3015L20.6671 16.9925C20.2987 17.3609 19.7013 17.3609 19.3329 16.9925L16.6419 14.3015C16.2735 13.9331 16.2735 13.3357 16.6419 12.9673L19.3329 10.2763Z" stroke="white" stroke-width="2"/>
<path d="M25.6985 16.6419C26.0669 16.2735 26.6643 16.2735 27.0327 16.6419L29.7237 19.3329C30.0921 19.7013 30.0921 20.2987 29.7237 20.6671L27.0327 23.3581C26.6643 23.7265 26.0669 23.7265 25.6985 23.3581L23.0075 20.6671C22.6391 20.2987 22.6391 19.7013 23.0075 19.3329L25.6985 16.6419Z" stroke="white" stroke-width="2"/>
<path d="M12.9673 16.6419C13.3357 16.2735 13.9331 16.2735 14.3015 16.6419L16.9925 19.3329C17.3609 19.7013 17.3609 20.2987 16.9925 20.6671L14.3015 23.3581C13.9331 23.7265 13.3357 23.7265 12.9673 23.3581L10.2763 20.6671C9.9079 20.2987 9.9079 19.7013 10.2763 19.3329L12.9673 16.6419Z" stroke="white" stroke-width="2"/>
<path d="M19.3329 23.0075C19.7013 22.6391 20.2987 22.6391 20.6671 23.0075L23.3581 25.6985C23.7265 26.0669 23.7265 26.6643 23.3581 27.0327L20.6671 29.7237C20.2987 30.0921 19.7013 30.0921 19.3329 29.7237L16.6419 27.0327C16.2735 26.6643 16.2735 26.0669 16.6419 25.6985L19.3329 23.0075Z" stroke="white" stroke-width="2"/>
<defs>
<linearGradient id="paint0_linear_4_44" x1="55" y1="-46" x2="-23" y2="97.5" gradientUnits="userSpaceOnUse">
<stop stop-color="#808080"/>
<stop offset="1" stop-color="#858484" stop-opacity="0"/>
</linearGradient>
</defs>
</svg>
