<svg width="40" height="40" viewBox="0 0 40 40" fill="none" xmlns="http://www.w3.org/2000/svg">
<path d="M20 0C35.1658 0 40 4.83421 40 20C40 35.1658 35.1658 40 20 40C4.83421 40 0 35.1658 0 20C0 4.83421 4.83421 0 20 0Z" fill="white"/>
<path d="M21.4487 14.9517L25.0487 18.5517M12.4487 27.5517L16.8147 26.672C17.0465 26.6253 17.2593 26.5111 17.4264 26.3439L27.2001 16.5649C27.6687 16.096 27.6684 15.336 27.1994 14.8676L25.129 12.7995C24.6602 12.3312 23.9006 12.3315 23.4322 12.8002L13.6575 22.5802C13.4907 22.7471 13.3768 22.9595 13.33 23.1908L12.4487 27.5517Z" stroke="#323232" stroke-width="2" stroke-linecap="round" stroke-linejoin="round"/>
</svg>
