<svg width="40" height="40" viewBox="0 0 40 40" fill="none" xmlns="http://www.w3.org/2000/svg">
<path d="M20 0C35.1658 0 40 4.83421 40 20C40 35.1658 35.1658 40 20 40C4.83421 40 0 35.1658 0 20C0 4.83421 4.83421 0 20 0Z" fill="white"/>
<path d="M20.0001 15.2C18.6746 15.2 17.6001 14.1255 17.6001 12.8C17.6001 11.4745 18.6746 10.4 20.0001 10.4C21.3256 10.4 22.4001 11.4745 22.4001 12.8C22.4001 14.1255 21.3256 15.2 20.0001 15.2Z" stroke="#323232" stroke-width="2"/>
<path d="M20.0001 22.4C18.6746 22.4 17.6001 21.3255 17.6001 20C17.6001 18.6745 18.6746 17.6 20.0001 17.6C21.3256 17.6 22.4001 18.6745 22.4001 20C22.4001 21.3255 21.3256 22.4 20.0001 22.4Z" stroke="#323232" stroke-width="2"/>
<path d="M20.0001 29.6C18.6746 29.6 17.6001 28.5255 17.6001 27.2C17.6001 25.8745 18.6746 24.8 20.0001 24.8C21.3256 24.8 22.4001 25.8745 22.4001 27.2C22.4001 28.5255 21.3256 29.6 20.0001 29.6Z" stroke="#323232" stroke-width="2"/>
</svg>
