<svg width="40" height="40" viewBox="0 0 40 40" fill="none" xmlns="http://www.w3.org/2000/svg">
<path d="M20 0C35.1658 0 40 4.83421 40 20C40 35.1658 35.1658 40 20 40C4.83421 40 0 35.1658 0 20C0 4.83421 4.83421 0 20 0Z" fill="white"/>
<path d="M10.3999 13.4H29.5999M16.3999 9.80005H23.5999M24.1999 30.2H15.7999C14.4744 30.2 13.3999 29.1255 13.3999 27.8L12.852 14.65C12.8236 13.9683 13.3686 13.4 14.0509 13.4H25.9489C26.6312 13.4 27.1762 13.9683 27.1478 14.65L26.5999 27.8001C26.5999 29.1255 25.5254 30.2 24.1999 30.2Z" stroke="#323232" stroke-width="2" stroke-linecap="round"/>
</svg>
